<svg width="31" height="30" viewBox="0 0 31 30" fill="none" xmlns="http://www.w3.org/2000/svg">
<path d="M15.7094 0.0673828C7.56129 0.0673828 0.932129 6.70037 0.932129 14.8534C0.932129 23.0067 7.56129 29.6395 15.7094 29.6395C23.8578 29.6395 30.4872 23.0067 30.4872 14.8534C30.4869 6.70037 23.8575 0.0673828 15.7094 0.0673828ZM15.7094 28.1811C8.36486 28.1811 2.38962 22.2024 2.38962 14.8534C2.38962 7.50464 8.36486 1.52572 15.7094 1.52572C23.054 1.52572 29.0297 7.50464 29.0297 14.8534C29.0294 22.2024 23.054 28.1811 15.7094 28.1811Z" fill="#F4F4F4"/>
<path d="M20.2644 6.17773H17.0588C17.0513 6.17773 17.044 6.17798 17.037 6.17871C13.8006 6.18891 13.3779 8.45006 13.3762 10.4263C13.3719 10.4448 13.3694 10.4638 13.3694 10.4835V11.8708H11.1545C11.0204 11.8708 10.9116 11.9797 10.9116 12.1139V15.5354C10.9116 15.6698 11.0204 15.7784 11.1545 15.7784H13.3694V23.2867C13.3694 23.4211 13.4783 23.5297 13.6124 23.5297H16.8448C16.9792 23.5297 17.0877 23.4211 17.0877 23.2867V15.7787H20.2641C20.3984 15.7787 20.507 15.67 20.507 15.5356V12.1141C20.507 11.98 20.3984 11.8711 20.2641 11.8711H16.8448V10.0319H20.2641C20.3984 10.0319 20.507 9.92298 20.507 9.78881V6.42079C20.5073 6.28662 20.3984 6.17773 20.2644 6.17773Z" fill="#F4F4F4"/>
</svg>

