<svg width="30" height="30" viewBox="0 0 30 30" fill="none" xmlns="http://www.w3.org/2000/svg">
<path d="M14.7093 11.2372C13.994 11.2372 13.2948 11.4493 12.7 11.8467C12.1052 12.2441 11.6417 12.8089 11.3679 13.4698C11.0942 14.1307 11.0226 14.8579 11.1621 15.5594C11.3017 16.261 11.6461 16.9054 12.1519 17.4112C12.6577 17.917 13.3022 18.2615 14.0037 18.401C14.7053 18.5406 15.4325 18.4689 16.0933 18.1952C16.7542 17.9215 17.3191 17.4579 17.7165 16.8632C18.1139 16.2684 18.326 15.5692 18.326 14.8538C18.326 14.3789 18.2324 13.9086 18.0507 13.4698C17.8689 13.031 17.6025 12.6323 17.2667 12.2965C16.9308 11.9606 16.5321 11.6942 16.0933 11.5125C15.6546 11.3307 15.1843 11.2372 14.7093 11.2372ZM29.1906 7.66426C29.1829 6.53807 28.9755 5.42217 28.5781 4.36842C28.2853 3.59735 27.8324 2.8971 27.2493 2.3139C26.666 1.7307 25.9658 1.2778 25.1947 0.985091C24.141 0.587642 23.0251 0.380263 21.8989 0.372591C20.0176 0.270508 19.4635 0.270508 14.7093 0.270508C9.95514 0.270508 9.40098 0.270508 7.51973 0.372591C6.39354 0.380263 5.27764 0.587642 4.22389 0.985091C3.45281 1.2778 2.75257 1.7307 2.16937 2.3139C1.58617 2.8971 1.13327 3.59735 0.84056 4.36842C0.443111 5.42217 0.235732 6.53807 0.22806 7.66426C0.125976 9.54551 0.125977 10.0997 0.125977 14.8538C0.125977 19.608 0.125976 20.1622 0.22806 22.0434C0.243757 23.1736 0.450856 24.2929 0.84056 25.3538C1.13198 26.1214 1.5845 26.8176 2.16764 27.3955C2.74834 27.9822 3.45009 28.4351 4.22389 28.7226C5.27764 29.12 6.39354 29.3274 7.51973 29.3351C9.40098 29.4372 9.95514 29.4372 14.7093 29.4372C19.4635 29.4372 20.0176 29.4372 21.8989 29.3351C23.0251 29.3274 24.141 29.12 25.1947 28.7226C25.9685 28.4351 26.6703 27.9822 27.251 27.3955C27.8341 26.8176 28.2866 26.1214 28.5781 25.3538C28.9751 24.2949 29.1825 23.1743 29.1906 22.0434C29.2926 20.1622 29.2926 19.608 29.2926 14.8538C29.2926 10.0997 29.2926 9.54551 29.1906 7.66426ZM25.4864 19.3309C25.4396 20.2309 25.2475 21.1173 24.9176 21.9559C24.6345 22.6555 24.2137 23.2909 23.68 23.8246C23.1464 24.3582 22.5109 24.7791 21.8114 25.0622C20.9649 25.3737 20.0735 25.546 19.1718 25.5726C18.0197 25.5726 17.7135 25.5726 14.7093 25.5726C11.7051 25.5726 11.3989 25.5726 10.2468 25.5726C9.34517 25.546 8.45377 25.3737 7.60723 25.0622C6.88404 24.7934 6.23096 24.3647 5.69681 23.808C5.16841 23.2848 4.76033 22.6528 4.50098 21.9559C4.18825 21.1103 4.02061 20.2178 4.00514 19.3163C4.00514 18.1643 4.00514 17.858 4.00514 14.8538C4.00514 11.8497 4.00514 11.5434 4.00514 10.3913C4.02061 9.48984 4.18825 8.59742 4.50098 7.75176C4.76972 7.02858 5.19846 6.37549 5.75514 5.84134C6.28063 5.31579 6.91199 4.90814 7.60723 4.64551C8.45377 4.33402 9.34517 4.16165 10.2468 4.13509C11.3989 4.13509 11.7051 4.13509 14.7093 4.13509C17.7135 4.13509 18.0197 4.13509 19.1718 4.13509C20.0735 4.16165 20.9649 4.33402 21.8114 4.64551C22.5346 4.91425 23.1877 5.34299 23.7218 5.89967C24.2502 6.42285 24.6583 7.05487 24.9176 7.75176C25.2291 8.5983 25.4015 9.4897 25.4281 10.3913C25.4281 11.5434 25.4281 11.8497 25.4281 14.8538C25.4281 17.858 25.5301 18.1643 25.4864 19.3163V19.3309ZM23.1531 8.48092C22.9794 8.00986 22.7057 7.58207 22.3507 7.22707C21.9957 6.87207 21.5679 6.59831 21.0968 6.42467C20.45 6.20047 19.7688 6.09187 19.0843 6.10384C17.9468 6.10384 17.626 6.10384 14.7093 6.10384C11.7926 6.10384 11.4718 6.10384 10.3343 6.10384C9.64637 6.11057 8.96504 6.23893 8.32181 6.48301C7.85796 6.64876 7.4347 6.91134 7.08016 7.2533C6.72563 7.59526 6.44794 8.00877 6.26556 8.46634C6.05378 9.11583 5.95031 9.79575 5.95931 10.4788C5.95931 11.6163 5.95931 11.9372 5.95931 14.8538C5.95931 17.7705 5.95931 18.0913 5.95931 19.2288C5.97377 19.916 6.10189 20.596 6.33848 21.2413C6.51211 21.7124 6.78587 22.1402 7.14087 22.4952C7.49587 22.8502 7.92366 23.124 8.39473 23.2976C9.01695 23.5264 9.67172 23.6544 10.3343 23.6768C11.4718 23.6768 11.7926 23.6768 14.7093 23.6768C17.626 23.6768 17.9468 23.6768 19.0843 23.6768C19.7723 23.67 20.4536 23.5417 21.0968 23.2976C21.5679 23.124 21.9957 22.8502 22.3507 22.4952C22.7057 22.1402 22.9794 21.7124 23.1531 21.2413C23.3971 20.5981 23.5255 19.9168 23.5322 19.2288C23.5322 18.0913 23.5322 17.7705 23.5322 14.8538C23.5322 11.9372 23.5322 11.6163 23.5322 10.4788C23.5326 9.79021 23.404 9.1076 23.1531 8.46634V8.48092ZM14.7093 20.4247C13.9784 20.4247 13.2547 20.2805 12.5797 20.0003C11.9046 19.7202 11.2914 19.3096 10.7753 18.7921C10.2591 18.2746 9.85018 17.6604 9.57181 16.9846C9.29344 16.3088 9.15114 15.5847 9.15306 14.8538C9.15306 13.7514 9.48016 12.6738 10.0929 11.7573C10.7057 10.8409 11.5766 10.1269 12.5954 9.70568C13.6142 9.28447 14.7351 9.175 15.8161 9.39114C16.8971 9.60728 17.8897 10.1393 18.6682 10.9199C19.4467 11.7004 19.9762 12.6944 20.1895 13.776C20.4028 14.8576 20.2904 15.9782 19.8665 16.9958C19.4426 18.0135 18.7263 18.8825 17.8083 19.4929C16.8902 20.1033 15.8117 20.4276 14.7093 20.4247ZM20.5426 10.3768C20.2203 10.3426 19.9219 10.1904 19.7051 9.94942C19.4883 9.70843 19.3683 9.39573 19.3683 9.07155C19.3683 8.74737 19.4883 8.43467 19.7051 8.19368C19.9219 7.95269 20.2203 7.80046 20.5426 7.76634C20.865 7.80046 21.1634 7.95269 21.3802 8.19368C21.597 8.43467 21.717 8.74737 21.717 9.07155C21.717 9.39573 21.597 9.70843 21.3802 9.94942C21.1634 10.1904 20.865 10.3426 20.5426 10.3768Z" fill="#F4F4F4"/>
</svg>

