<svg width="32" height="32" viewBox="0 0 32 32" fill="none" xmlns="http://www.w3.org/2000/svg">
<path d="M15.6468 0C6.98836 0 0 6.9759 0 15.6189C0 24.2619 6.98836 31.2378 15.6468 31.2378C24.3052 31.2378 31.2936 24.2619 31.2936 15.6189C31.2936 6.9759 24.3052 0 15.6468 0ZM15.6468 1.37115C23.5688 1.37115 29.92 7.71103 29.92 15.6189C29.92 23.5268 23.5688 29.8667 15.6468 29.8667C7.7248 29.8667 1.3736 23.5268 1.3736 15.6189C1.3736 7.71103 7.7248 1.37115 15.6468 1.37115ZM13.5619 8.15224C9.5268 8.15224 6.49128 8.84936 6.34304 8.88398H6.34168V8.88533C5.25368 9.1392 4.56688 10.2429 4.81984 11.329C5.0728 12.4157 6.17848 13.0999 7.26648 12.8508H7.27192L7.27532 12.8495C7.19848 12.8685 7.30932 12.8413 7.39092 12.8243C7.95136 12.7117 8.51511 12.6161 9.0814 12.5379C10.2129 12.3818 11.7878 12.225 13.5619 12.225H13.6041C16.5369 12.229 20.7509 12.6784 24.1332 14.6605H24.1346V14.6618C24.6018 14.933 25.1576 15.0087 25.6805 14.8724C26.2035 14.7361 26.6512 14.3988 26.926 13.9342C27.1971 13.4678 27.2729 12.9136 27.1371 12.3917C27.0012 11.8699 26.6646 11.4226 26.2004 11.1471C21.9545 8.6593 17.0129 8.15699 13.6095 8.15224H13.5619ZM13.5619 9.50982H13.6095C16.8769 9.51457 21.5982 10.0243 25.5109 12.318C25.5889 12.3621 25.6573 12.4215 25.712 12.4925C25.7666 12.5635 25.8065 12.6447 25.8291 12.7314C25.8517 12.818 25.8567 12.9083 25.8438 12.9969C25.8308 13.0855 25.8002 13.1707 25.7536 13.2472C25.6939 13.3499 25.6081 13.435 25.5048 13.4939C25.4015 13.5528 25.2844 13.5834 25.1654 13.5825C25.0449 13.5826 24.9266 13.5505 24.8227 13.4896L24.82 13.4882C21.0956 11.3066 16.6695 10.8715 13.6054 10.8674H13.5619C11.7082 10.8674 10.0749 11.0303 8.89576 11.1932C8.3062 11.2747 7.82952 11.3561 7.49768 11.4186C7.36844 11.443 7.23946 11.4688 7.11076 11.496C7.02576 11.5136 7.03188 11.5109 6.9632 11.5279C6.87603 11.5498 6.78532 11.5541 6.69647 11.5404C6.60761 11.5267 6.52243 11.4953 6.44598 11.448C6.36953 11.4008 6.30339 11.3387 6.25147 11.2654C6.19956 11.1921 6.16294 11.1092 6.1438 11.0215C6.12208 10.9347 6.11803 10.8445 6.13189 10.7562C6.14575 10.6679 6.17723 10.5832 6.22448 10.5072C6.27172 10.4313 6.33377 10.3655 6.40693 10.314C6.48009 10.2624 6.56289 10.226 6.6504 10.2069C6.75376 10.1832 9.68456 9.50982 13.5619 9.50982ZM13.6014 13.5839C11.8973 13.5975 10.4258 13.757 9.35136 13.9206C8.27696 14.0842 7.667 14.2321 7.47116 14.2878C7.00121 14.4237 6.6039 14.7391 6.36545 15.1656C6.12701 15.5921 6.06667 16.0952 6.19752 16.5658C6.33363 17.0347 6.6496 17.431 7.07677 17.6687C7.50395 17.9064 8.00782 17.9662 8.47892 17.8352L8.483 17.8345H8.48572L8.56664 17.8155C9.05155 17.7115 9.53957 17.6225 10.03 17.5487C11.2866 17.359 12.5549 17.2565 13.8258 17.2419C16.4533 17.2188 19.433 17.6037 22.3407 19.412C22.644 19.602 22.986 19.693 23.3179 19.693C23.934 19.693 24.5398 19.3808 24.888 18.8241C25.1444 18.4082 25.2261 17.9081 25.1153 17.4324C25.0046 16.9567 24.7103 16.5439 24.2964 16.2834C20.6353 14.0061 16.7076 13.5581 13.6014 13.5839ZM13.6136 14.9401C16.5791 14.9157 20.2198 15.346 23.5783 17.4353C23.6337 17.4683 23.6818 17.512 23.7197 17.5639C23.7577 17.6159 23.7848 17.6749 23.7993 17.7375C23.8139 17.8002 23.8156 17.8651 23.8044 17.9284C23.7932 17.9917 23.7692 18.0521 23.734 18.106C23.6904 18.1768 23.6291 18.2352 23.5562 18.2754C23.4833 18.3156 23.4012 18.3363 23.3179 18.3354C23.2277 18.3362 23.1391 18.311 23.0629 18.2628L23.0615 18.2614C19.8716 16.2767 16.5859 15.8599 13.8135 15.8843C12.0668 15.9049 10.3256 16.0841 8.61152 16.4199C8.466 16.4491 8.3504 16.4728 8.2688 16.4912L8.17224 16.5136C8.14776 16.5197 8.18584 16.5068 8.10016 16.5326L8.10696 16.5298C8.04539 16.5479 7.98084 16.5535 7.91707 16.5464C7.8533 16.5392 7.79159 16.5195 7.73556 16.4883C7.67953 16.457 7.63029 16.415 7.59073 16.3645C7.55117 16.3141 7.52208 16.2563 7.50516 16.1945C7.48629 16.1331 7.48007 16.0684 7.48687 16.0045C7.49368 15.9406 7.51336 15.8787 7.54474 15.8226C7.57612 15.7665 7.61856 15.7173 7.66948 15.678C7.72041 15.6387 7.77878 15.61 7.84108 15.5938H7.84244C7.83496 15.5958 8.53468 15.4173 9.55604 15.2625C10.8993 15.0597 12.2552 14.952 13.6136 14.9401ZM13.9468 18.3354C10.9827 18.3361 8.78832 19.0549 8.64892 19.1018C8.2229 19.2464 7.87117 19.5528 7.67004 19.9546C7.4689 20.3564 7.43458 20.8212 7.57452 21.2481C7.86896 22.1298 8.84204 22.6192 9.7274 22.3192L9.71652 22.3233C9.78452 22.3016 9.82532 22.2873 10.0314 22.2317C10.2381 22.1767 10.5414 22.1027 10.9201 22.028C11.9171 21.832 12.9307 21.732 13.9468 21.7294C16.896 21.7287 18.9101 22.4339 20.4836 23.4806V23.4793C20.772 23.6714 21.1024 23.7657 21.4254 23.7657C21.9742 23.7657 22.5168 23.4949 22.8412 23.0089C23.0882 22.6337 23.1773 22.1766 23.0891 21.7363C23.0009 21.2961 22.7425 20.9083 22.37 20.6569C19.8914 19.0074 17.102 18.3341 13.9468 18.3354ZM13.9468 19.693C16.9116 19.6916 19.3834 20.3012 21.6152 21.7864C21.7777 21.895 21.8178 22.0952 21.7097 22.2568C21.679 22.3039 21.6368 22.3426 21.5871 22.369C21.5374 22.3955 21.4818 22.409 21.4254 22.4081C21.3587 22.4087 21.2935 22.3888 21.2384 22.3511V22.3498C19.4473 21.1585 17.1176 20.3711 13.9468 20.3718C12.6283 20.3718 11.4825 20.5327 10.657 20.6956C10.2442 20.777 9.911 20.8585 9.67776 20.9209C9.4452 20.9834 9.24256 21.0499 9.30104 21.0309L9.2956 21.0322L9.29016 21.0336C9.24808 21.0488 9.20335 21.0552 9.15869 21.0525C9.11404 21.0497 9.07042 21.0379 9.0305 21.0178C8.99057 20.9976 8.9552 20.9696 8.92653 20.9353C8.89787 20.901 8.87652 20.8612 8.8638 20.8184C8.84837 20.7762 8.84175 20.7312 8.84434 20.6863C8.84692 20.6414 8.85866 20.5975 8.87885 20.5572C8.89902 20.517 8.92722 20.4813 8.9617 20.4523C8.99617 20.4234 9.03621 20.4017 9.07936 20.3888C9.1188 20.3752 11.2057 19.6937 13.9468 19.693Z" fill="#F4F4F4"/>
</svg>

